<svg data-v-423bf9ae="" xmlns="http://www.w3.org/2000/svg" viewBox="0 0 304.253760501627 185" class="iconAbove"><!----><!----><!----><g data-v-423bf9ae="" id="cf07c88c-9184-4b05-847f-9d960de7ccd1" fill="#ffffff" transform="matrix(4.4776120677666755,0,0,4.4776120677666755,-0.8955189772211725,102.79768861760853)"><path d="M12.01 5.10C11.52 5.10 11.24 5.19 10.96 5.29C11.05 5.40 11.10 5.54 11.10 5.77C11.10 5.98 11.05 6.19 11.02 6.41L9.67 13.64L7.95 6.59C7.87 6.23 7.46 6.06 6.96 6.06C6.55 6.06 5.96 6.17 5.57 6.37C5.68 6.61 5.77 6.96 5.66 7.48L4.17 13.65L2.60 5.80C2.51 5.29 2.06 5.05 1.36 5.05C0.71 5.05 0.38 5.28 0.20 5.47C0.43 5.73 0.60 6.15 0.66 6.38L2.69 14.70C2.77 15.08 3.21 15.23 3.89 15.23C4.17 15.23 4.63 15.16 5.15 14.97L6.78 8.51L8.27 14.70C8.37 15.08 8.81 15.23 9.38 15.23C9.70 15.23 10.18 15.16 10.68 14.97L12.91 6.89C13.02 6.51 13.10 6.15 13.10 5.89C13.12 5.33 12.78 5.10 12.01 5.10ZM19.45 12.98C19.14 13.57 18.48 14.03 17.44 14.03C16.28 14.03 15.55 13.45 15.41 11.80C15.90 11.86 16.35 11.86 16.79 11.86C18.56 11.86 19.80 11.10 19.80 9.72C19.80 8.30 18.52 7.59 16.91 7.59C14.59 7.59 13.33 9.03 13.33 11.38C13.33 13.83 14.73 15.22 16.90 15.22C18.23 15.22 19.21 14.70 19.57 13.79C19.78 13.27 19.64 13.06 19.45 12.98ZM16.84 8.23C17.29 8.23 17.72 8.46 17.72 9.39C17.72 11.05 16.48 11.17 15.65 11.16C15.55 11.16 15.47 11.16 15.39 11.14L15.39 11.13C15.39 9.32 15.92 8.23 16.84 8.23ZM24.11 15.22C26.53 15.22 27.54 13.66 27.54 11.14C27.54 8.58 26.52 7.59 25.05 7.59C24.00 7.59 23.25 8.12 22.95 8.99L22.95 8.23C22.95 7.55 22.99 6.27 23.25 5.18C23.07 5.04 22.64 4.76 22.06 4.76C21.49 4.76 21.04 5.12 21.04 5.75L21.04 14.29C21.70 14.87 22.86 15.22 24.11 15.22ZM23.97 14.46C23.59 14.46 23.21 14.34 22.96 14.17L22.96 11.55C22.96 9.94 23.49 8.58 24.58 8.58C25.23 8.58 25.48 9.35 25.48 11.14C25.48 12.94 25.26 14.45 23.97 14.46ZM32.63 15.22C34.36 15.22 36.19 14.56 36.19 13.22C36.19 12.45 35.32 12.12 34.55 12.24C34.36 13.82 33.73 14.56 32.75 14.56C31.42 14.56 30.83 13.09 30.83 10.14C30.83 7.18 31.43 5.71 32.80 5.71C33.71 5.71 34.24 6.38 34.38 7.87C35.42 7.88 35.95 7.31 35.95 6.75C35.95 5.64 34.29 5.05 32.77 5.05C30.20 5.05 28.67 6.90 28.67 10.14C28.67 13.37 30.14 15.22 32.63 15.22ZM43.53 8.68C43.53 7.99 43.04 7.59 42.42 7.59C41.87 7.59 41.48 7.85 41.31 7.99C41.64 8.76 41.64 9.25 41.64 11.06C41.64 13.15 41.08 14.22 40.21 14.22C39.47 14.22 39.30 13.44 39.30 12.00L39.30 8.58C39.30 7.95 38.82 7.59 38.19 7.59C37.69 7.59 37.34 7.80 37.09 8.01C37.32 8.64 37.37 9.41 37.37 9.84L37.37 12.31C37.37 14.35 38.09 15.12 39.56 15.12C40.80 15.12 41.51 14.49 41.87 13.38C41.80 13.83 41.75 14.34 41.75 14.57C41.75 16.37 41.12 17.58 39.93 17.58C39.28 17.58 38.98 17.19 38.98 16.69C38.98 16.45 39.10 16.17 39.38 15.97C39.21 15.76 38.91 15.65 38.51 15.65C37.73 15.65 37.20 16.07 37.20 16.69C37.20 17.85 38.49 18.16 39.89 18.16C42 18.16 43.54 17.16 43.54 14.28ZM48.94 15.22C51.58 15.22 52.95 13.51 52.95 10.14C52.95 6.76 51.58 5.05 48.94 5.05C46.31 5.05 44.94 6.76 44.94 10.14C44.94 13.51 46.31 15.22 48.94 15.22ZM48.94 14.56C47.66 14.56 47.10 13.23 47.10 10.14C47.10 7.04 47.66 5.71 48.94 5.71C50.25 5.71 50.79 7.04 50.79 10.14C50.79 13.23 50.25 14.56 48.94 14.56ZM58.80 7.59C57.67 7.59 56.88 8.19 56.46 9.49C56.34 8.34 55.86 7.66 54.98 7.66C54.29 7.66 53.82 8.06 53.82 8.64C53.82 8.81 53.87 9.04 54.00 9.24C54.08 9.11 54.26 9.09 54.36 9.09C54.61 9.09 54.73 9.31 54.73 9.81L54.71 17.07C54.71 17.68 55.20 18.05 55.82 18.05C56.36 18.05 56.76 17.78 56.92 17.63C56.66 16.70 56.62 15.60 56.62 14.97L56.62 14.41C56.88 14.94 57.47 15.22 58.28 15.22C60.13 15.22 61.32 13.82 61.32 11.14C61.32 9.20 60.66 7.59 58.80 7.59ZM57.79 14.24C56.95 14.24 56.64 13.57 56.64 12.12C56.64 10.47 57.11 8.61 58.21 8.61C59.05 8.61 59.26 9.56 59.26 11.13C59.26 13.10 58.86 14.24 57.79 14.24ZM64.89 15.22C67.27 15.22 68.15 14.07 68.15 12.94C68.15 11.65 66.92 11.06 65.84 10.54C64.96 10.11 64.15 9.73 64.15 8.99C64.15 8.46 64.64 8.23 65.17 8.23C65.74 8.23 66.12 8.53 66.28 8.95C66.40 9.18 66.42 9.52 66.40 9.79C66.56 9.81 66.70 9.83 66.89 9.81C67.58 9.80 67.82 9.37 67.82 8.93C67.82 8.02 66.74 7.57 65.24 7.57C63.74 7.57 62.43 8.18 62.43 9.65C62.43 11.17 63.66 11.75 64.74 12.25C65.58 12.66 66.36 12.98 66.36 13.69C66.36 14.28 65.83 14.53 65.16 14.53C64.19 14.53 63.74 13.93 63.64 13.37C63.57 13.12 63.56 12.88 63.62 12.61C62.52 12.43 62.20 13.09 62.20 13.59C62.20 14.55 63.07 15.22 64.89 15.22Z"></path></g><!----><g data-v-423bf9ae="" id="75c7e1e1-7a70-4dd8-a5b1-b0ed595b0dfb" transform="matrix(1.1111111958821616,0,0,1.1111111958821616,110.81077126892924,8.26643656819627)" stroke="none" fill="#FFD009"><path d="M70.915 59.625c0 18.25-14.875 32.977-32.97 32.977-18.25 0-32.977-14.727-32.977-32.977 0-9.205 3.683-17.485 9.816-23.466V15.762c0-12.73 10.433-23.16 23.161-23.16s23.006 10.43 23.006 23.16v20.397c6.133 5.981 9.964 14.261 9.964 23.466zm-46.161-3.684H14.327l-1.536 3.684 1.536 3.68h10.427v-7.364zm6.441-8.128l-7.515-7.514-3.683 1.379-1.53 3.837 7.515 7.514 5.213-5.216zm-5.213 18.253l-7.515 7.668 1.53 3.681 3.683 1.379 7.515-7.515-5.213-5.213zm1.227-37.576c6.744-2.455 14.11-2.455 21.316 0V15.759c0-5.827-4.756-10.735-10.581-10.735-5.984 0-10.735 4.908-10.735 10.735V28.49zm14.264 18.098v-10.43l-3.683-1.533-3.683 1.533v10.43h7.366zm-7.366 25.919v10.427l3.683 1.536 3.683-1.536V72.507h-7.366zm15.338-19.478l7.515-7.514-1.376-3.684-3.838-1.533-7.515 7.514 5.214 5.217zm-5.214 18.25l7.515 7.515 3.838-1.379 1.376-3.681-7.515-7.668-5.214 5.213zm6.442-7.974H61.1l1.536-3.68-1.536-3.684H50.673v7.364z"></path></g><!----></svg>